<mxfile host="65bd71144e">
    <diagram id="HIP3nbAZw_EuaXWnEj3U" name="Page-1">
        <mxGraphModel dx="906" dy="563" grid="1" gridSize="10" guides="1" tooltips="1" connect="1" arrows="1" fold="1" page="1" pageScale="1" pageWidth="850" pageHeight="1100" math="0" shadow="0">
            <root>
                <mxCell id="0"/>
                <mxCell id="1" parent="0"/>
                <mxCell id="7" value="http://ics2o.mths.ca" style="swimlane;whiteSpace=wrap;html=1;" parent="1" vertex="1">
                    <mxGeometry x="40" y="40" width="760" height="480" as="geometry"/>
                </mxCell>
                <mxCell id="8" value="Multiplication Program" style="rounded=0;whiteSpace=wrap;html=1;" vertex="1" parent="7">
                    <mxGeometry y="20" width="760" height="60" as="geometry"/>
                </mxCell>
                <mxCell id="9" value="Enter two numbers in the spaces below&lt;br&gt;" style="text;html=1;strokeColor=none;fillColor=none;align=center;verticalAlign=middle;whiteSpace=wrap;rounded=0;" vertex="1" parent="7">
                    <mxGeometry x="10" y="110" width="370" height="30" as="geometry"/>
                </mxCell>
                <mxCell id="11" value="" style="rounded=1;whiteSpace=wrap;html=1;" vertex="1" parent="7">
                    <mxGeometry x="50" y="160" width="140" height="20" as="geometry"/>
                </mxCell>
                <mxCell id="12" value="" style="rounded=1;whiteSpace=wrap;html=1;" vertex="1" parent="7">
                    <mxGeometry x="50" y="210" width="140" height="20" as="geometry"/>
                </mxCell>
                <mxCell id="13" value="Submit" style="rounded=1;whiteSpace=wrap;html=1;" vertex="1" parent="7">
                    <mxGeometry x="60" y="270" width="70" height="30" as="geometry"/>
                </mxCell>
                <mxCell id="14" value="" style="shape=image;verticalLabelPosition=bottom;labelBackgroundColor=default;verticalAlign=top;aspect=fixed;imageAspect=0;image=data:image/jpeg,/9j/4AAQSkZJRgABAQAAAQABAAD/2wCEAAkGBxITEhUSEhIVFhUWGSIbGRcYGSAeIBsdHSAfIB4gIBoYIiggHyAnIB0hIjEhJSkrLi4uHh8zODUtNygtLisBCgoKDg0OGxAQGy8lICYrKystKy0rMC8rLy0tNzcwNysrNy0tKzgvNS0vNi0vLS0tLS0tLy0tLS0tLSstLy0tLf/AABEIAP8AxgMBIgACEQEDEQH/xAAbAAABBQEBAAAAAAAAAAAAAAAFAgMEBgcAAf/EAEUQAAIBAwIDBQQHBgQFAwUAAAECAwQREgAhBRMxBiJBUWEUIzJxFTNCUmKRkwdUgaHR0kNTY3Ikc7GywTSSwhYlgqLx/8QAGgEBAAIDAQAAAAAAAAAAAAAAAAMGAgQFAf/EADIRAAIBAgIIBQQCAgMAAAAAAAABAgQRA3ESFSExM0FRUgYUMmGhBROR4bHRI4EiQvH/2gAMAwEAAhEDEQA/AKJbXW0u2jNHRxxRrLKgkkkGUcbXwVL2DuBYsWIOKXtbc3uBqzN2K6ur3AFpFHVgP46Tzk+8v56tA4zVAWWd4wOixWjUfJYwo/lrvpus/e6j9Vv66WxOi/P6PPu4XuVfnJ95fz13tCffX89aLwOm4hVQzzR1k/uR8HMe7m2Vhvsf66Y7Ne31k3KjrJ1spYsZXIA2HgfEkfz8tRPGtfds37X/AESpJ6Ox7d24oHPT76/mNd7Qn31/Mat9ZxasjkeM1dRdHZD719ypIPj6aaPHqz97qP1X/rrNObV9n5/Rg54Sdnf4Kr7Qn31/Ma72lPvr+Y1oPFV4hDNDB7bM7zKjLaVxvISoG58x10xDUVntBp56+WAqSGd52xUgX3Ia2/Tr46jWK2rq3Xe/6JGop2ae+3LeUX2hPvr+Y13tCffX8xq1txysBP8Axk59ea+/r10um4zWOyqKyfvMFB5r+Jt56kvO17L8/oj08K9tvwVL2lPvr+Y157Sn31/Ma0WoFXFVSUsvFHj5YvzXlcKSVVgN26nL+R0DXj9Za5q6kfOV/wCusYzlLdb5/ozm8OO+/TlyKt7Sn31/Ma72lPvr+Y1avp6s/e6j9V/6676erP3uo/Vf+us/8nRfn9Ef3ML3+Cq+0J99fzGu9oT76/mNXauq+Iw8vmVM681A6e/Y3U9DsdvlpPEuJ1MTlE4jLKot345nKm46A5eHTWCnJ7rfl/0ZtwSd77Mil+0J99fzGu56ffX8xq0jj1Z+9z/rP/XXv09WfvdR+q/9dZ/5Oi/P6MPu4Xv8FV56feX8xruen3l/MatQ47WfvdR+q/8AXXfTtZ+9VH6r/wBde2xei/P6PPu4XuVhZFPRgfkdLx1ZW4xO20zCdfFZwJAf4t3l+asCPPQ3i9CiYSxX5MtwFY3MbrbKMt9oWIZWO5U77qdY6TTtJGScZK8GDUXXaWq67Uh4meyDY/LVj44oE7AdFCKv+1UUL/IDQBl0akPNhWZd2jVY5h4jEYo5/CygAnwYG/UXxbtNN5EbTlBpZkW2utpvPXZ6mNTRZfeyvEjScOeoH72gPqnczHzxyt66Kwwx8OlRIypNbVLhj9mAEEAemT4+obWfNxqT2UUtl5Yk5l7HIm1rXva38NRqevdJI5LljEylAxJAwIIFr7LcdBbXOlSSk5Nve3/tcvk6kKuMIxSV7Jbej5l29jQHjWSqSt2UkAlSxka4J6dR+Q0MoqZfoaskKDITIFYje2UVwD18T+Z1EpO18yVE1QUiYVAAliKnBgBYbEk9L9bg3O3kjiHayaaB6YxwpC5UhI0xCBGDALY23I3JHn08PFhYqaVuae/pa568XCbvfk1a3XcWni1RhxOhIVGyhhXvre2TsLjyYeB8NewTifjXLkihxjaRRZAC3cvdyb5EW2PqdVCv7STTLAGCB4LYTKvfOPw3J2Njv0tfUuTtlMZ46rlQCWMMCQhGeQAu9mubAbb7XOsPLTXLbZrf8mXmYX37Lp7vgK8MaOHh1RUciKSSOqshdbhScFBPmBkbDpe2nKp1qqWnrHjRJkqVjZkXESLceHpt8rN521G4LxwQ8Mm+peRqjeKQAh1YJl3Cb267+FvTQXjPaSWoEaBI4YoTlHHELAN971O5t06nz0jhTlJ2XPffl0PZ4kIxV3vW63O+8ukECPxypDqrDlXswBF+XF4H56B8PkWj4bT1McUck9Q5XmSLkEAy2A8zj/1vewGoZ7az+0Cp5UAl5ZjYhSM723azXJFgBvtv/CFwXtHJBEYDHHPATcxTLkAfMeXn4i++xvr1YGJo7V02X32v/wCmLx8O7t77bbrhDh9TNV1Syx09LmiEvklotr+8kF+ouPXYfwM8YZJuHSVLtTTSwTIFkijIWxZAUbIDIWbw2tjoBD2xmWYSLFAqBDHyVjshQm5BF7k38enXbc3Zre1MkkD0yxQxQuykJGhGOLBtjfckgXJ/lrJ4OI5xaVkrc+XM8jjYag03du/LnyLF274gzJSRmOG0sSOSI+8u4OKG/dXwt5am13C4Pb6uV4VdKanEiwgCztjf4RsenS3UjVMm7SyvTJTyJEwjty5CvvECkGwa/SwC9L22N+unG7V1JqjVqUSQgKQAcSoAFiCSSDa/X5W1iqbEUdFbN/Pfexk6nDb0pbd3Lda5YOA1/wBJGSmqYoB7pnjkjTExEEDrc93cflY3vsgVkdPw2inSnhadi4VpFuFBYljYWybYAXO1z8iGre1sjRvFDDT0wlFpDClmceIv4A3Prv1Gh9XxmSSCGmYKEhLFSAcjkb7m9vHwGslTyb2q0brZf2f8mDqIxT5uz229w926RGWiqBGiPUQZyBBYEgIb2/8AyIv1tby1VbamcS4zJOkMbhQsEfLTEG5Hd+K5O/dHS3jofnrcp4OEFF+5pVDU5uUfYctqTKt6Oe/2JInX0a7J/wBrn8tRA1yAOp2A8z5W1I4seXEKY/Ws4kmH3AoIjjP4jmzsOosgO9wGNLYo87oypotScuSTBCDXmlga7WZ7cVpyGV0YPG7I46MpsfXp4HxHQ+OkS7An01aeIxxpO8MVHA+IuL80sQEDsdpRfa52HhrDFklstc9w1zvYCfS8n2oqVz4sYFBPz5eI/lrvphv3ek/SP92jNAY2qFgkoqcd5lYDm3BUNcX5pHUW0ePDqDMR+zwZkZBMpL49L25nS/8A58tcup+oYNPLQnF3tfZt2fk6lLQ41TDTg1a9tuzaUn6Zb92pP0T/AH676Zb92o/0T/fq9R8GpCWHskWxsN5PIH/M9dMCgoXiaWKnp3UBiGVpCCVv4iTfcW1r66pekjZ1NVdYlN+mm/dqP9E/3676ab92o/0T/fq71PDKBLZ00C5MFXJpBcnYD6zqemlHg9JkB7JDuCesngV/1PXWOuqXtZ7qar6oo/0237tR/on+/XfTbfutH+if79XaPhlAzMi00BZLZKGkut72uOZ42P5Hy16nCaPEsaWEAZXN5LAKTv8AWeQ011S9rGpqvrEpH0237rRfon+/XfTbfutF+if79XX6LoiqstLCQ2NjeSxDdCPeeWvW4ZQB1jNNAHYEquUlyB1IHM01zS9rGqKvqik/TbfutF+if79d9Nt+60X6J/v1eE4NSEsPZIdrW3k8r/5mmn4bRGN3SmgbENuGkIut7jaTwIsdNdUvaxqar6opn0237rRfon+/XfTbfutF+if79XSr4dw+Kxkp4EBNgWaQXPl9ZpbcHpMwvskNirHrJ1BUf5n4jprql7WNT1fVFI+m2/daL9E/3676bb91o/0T/fq6pwygLMi00BZbZKGkuL9Ljma8XhdEEZ3pYQFLXJaQABWI/wAzyGmuqXtY1PVdUUr6bb91o/0T/frvptv3aj/RP9+rqeGURRXSlgZWK2IaQghmAuCJPI7aRJS8NUsGhpgVYK13fZm3APvNiRvby1lrile6Mg/o9Ut7j8FN+mm/dqP9E/3676ab92o/0T/fq7PwqiXMvSwKqKGJLSAAb3JJksALaQlDw9rhKenZsA9g8h7rC6tbmdD4eemuaXtkeanquqKU/Gp9xGY4LixMEaxsR/zBeQfwYaHKgHTWjvQcPUhWp6cMVL4lpL4jqbcy9h56G9peH0oojPBDGpzjxdGYgq+V/iYgg2Gpqb6tTzxFGEXd7L2Ian6VUQw3OclZcrlOQa7Sk15rtHEudP8ACflq2cQreRxBprZFLFR0u3LAW/pcgnzFxqpyjun5a0fjlJTKWlkjyJwG1yWZgiqAAepJA1zfqFZCl0XOLeldWXub/wBPo51SkoNJqzuyr8IZTWIUBCl3KhjcgFXtc+Jt1OrNJwwtUrPlsoHdtvkFlQb9McZTtbqBqRwHhdK8tO6ICrnIMCwurRsQetxtqzSJRLUrSFX5jLcd58dw5C5ZfEVjdreSn0vXaqfnZ/cw/wDjZaNmWOjw/I4f28T/AJNvSutxX4ur/wC7/wCK6iJS4QzLe+TTP+ozvb+GVv4aukXBaYGYspAVuvMfYYIT9rQ+GCkqaSWaJJAMG2dnBBxuLqW8QQfkRrU8hPu6fBuOvg/+r5/JX+J0zyYqpUKHDOGv3gpyAuvTvAE+drdCdPt8a/7W/wCqasXGI6Km5fNV/eNiMWc26XY97ZRcXPqNSJOBU/OQYG2D/bfzj/Fp5CdraS5jz8L30XyKZT0jLPLKWFpFRQu5thlvdjtfL4VsuxPVjrp6XmwtGWZQxIJXG/xk2s4ZSDaxBBBBI1aqCOhmmlgRXzh+K7SAHdlOJy3sysp8iNdNRUsMLSuj2DlQFdyWZpCiKBluWYhR6nXvksS99JX2fB557DtbRdtvyVWkpjFDDEWyKBFLWtfGwvYfLXstIxmjlDYhAQwF7uCDZSL44gkNcgm42sCdWqOgpJoYZ4lYpKUZTm+6tYjYttsdInShSpSkZX5sguLNJYXDlQTlsWEUhH+w+l/PIz36S5/J75/DtbRfL4K/GO8/zH/QaGcP4a1PStEz54oQOtgBGFsMiSASpa19ixA21f4eB0+ct0NgR/iP90fi0Lp0oqqklmgD2CN8TODugdTYt0KMrC/gwv5a9VDNK2krbPgeeg3fRd9vyBa6nL4reyh1Zh94IcgP/eFv5gEeOlN9Yv8Asb/rHqw8ZioqUI0qvZ2xGLSG1gWZjZtlVQST/wCSBqRJwOn58YwNjG5+N/Bo/wAXrrHyE+5HusIb9FlKpOHFJ5psr8y22/h8zYWAt3QMupuRp1oM4nXbdntckbiRiDdd9iAdvLVpo4aKWeWBUfOLqS0gB88TlviSAfInSU4fTRQPLIjkLJJsHck+9YKAA25JsB6nWTocRu+kr7PgxVdhpW0Xbb8lWipeVBHHkWwMYyPUnNbk/M76hcZ4CZy5EgXKw6E7GKWJvHraYsPVd+urs1BSy08c0atjI0RF2cGxkS4ILbHwI8DpVTHQx1EdMyvzJOlmcgXDlcjltkI3t54H0v7GjxYvSUlc8lW4clouLtmV3q7+oH/y1BoeGGJUuwbCmWHpa5T7XyPlq9RcCp+bIMDYKv23/F+LQ/hYoquGSSBXstx3mcdUV1IBboyOrA+TDxuNeKixFs0kZOuw3t0WVupppGKPG6qyI4UsLjJgtjYdbEXt46Gdoqbl8NMf3XiHUm9i+923JPUk+JOrxxYUVJFHJOrgPsMWc9EZ2JAbZVRGYnyXzsCH/ajw6OKgJjUjKVL3Zj0y+8T562qKlnDGg21ZM1K2qhPBmkndoytBrtKXXaupSriJR3T8tadxpI3BjaQIRy2DArdWTBlIDXGzAGxBGszmHdPy1qPF5iiu6qGKoCFJteyA9bG35HVc8RenDt1LF4cs5Tvuse9nzDFJTRq6hIyFF2GwWNgLm+rJNQUzViVZnGSKAEzTHIB1D/eyCyuvW1m6XA0B4FJnNTNb4je3zjY6P1HHgtdHScoYuAOZfcOyyuBjbphC92v1Ki3UjlUPoebOvX8RZIlR1MDGdWkjKs1iMxuDGgPjobS0tPS0UsS1AkJRyXdkyY42F8ABsoVdh4eejtIgzm2Hxj/sTQik4kaiinkeJY2UzxlQ2QBiZ4z3rC98b9NbppCuO0FLVGIvUBeW1+66d5TYsjZA91sRe1jtsRqbJXw85Pex/Vv9oecfrpvj9e1OsbrGjhpUjYFirWkYLdAFbJgTexKiwJuLalyIOemw+rf/ALo9ACuF8PpYJ5p0nBMp+EulkuzO2NgD3ndmORPXaw11UkNRTtE06peQsrKy3VklzRhlcGzKDYgg2sdSOH8UL1VRTNGq8kRsrAnvCTL7LKvTHquS72vdWA8rOIJTUskzgEIz2FwMmMhCLdtgWYhbna50A3Tingp4KeOVMIuWi3dSbLYC/rtpup4fTPVx1hnGaADAOuJKiVUY+N1WeUbGxy3GwtIpa1Z6amnCqObynsDcDKxtfxte19dW8UKVkFNy1wlVjzGLDvKCcEshVmspYqWU4gkXsdAPQ1sJeUGWOxI+2Puj10HoaCmpKOaGOoEl0Y5O6ljaMRqO7YbIire1za5uSdH4cQ8xIFgQen4RoLw3jiVtDNOqYdxxgb5KCmS5BlWzFGVrC47wsWG5Ae4/Q01WqK9QFwa5wdO8pUq6HIHuspsSLEbWI1Mlr4vaIzzY7cuT7Q+9F66b7RV8kEaPFFHITIkZVnKH3jBBjijXN2GxsLXN9tS5VHtEew+rk/7otADaCipoqiaoFQCZfsF0xS+7Y2APeIBORPpbSfczU0kTTquUkhDBlupEzMrDK4uCAdwRtpfCuOc6rqablBRBaz3vlfrsVA/9rNbo2JsNKerMNLJKseZWSSy9BvMw3IBIUXuSAbAHY6Ab9xDTxQpMrBHiFy63NpEuxtYXO5NgBryroKaSqiqzOA0Y+EOmL4iQIWvv3ebIRYjdt72GnKevFRSQT4BeY0LWBuBeROjWFx5GwuPAaF8f7YtStMrUqty2FrSfEghlmdj3NmCwsAu9yVuRvYA9FXw86T3sdsU+0Px+uhnA+HU1HBJFFOHDb3d1JAWNY0UY22VEVfM2uSSTonUMVaZkRXZY1KqTiCRnYFrGw9bH5HQvhfHjUAKYAiyUaVCtlc+8ButsRa3nffyGgPeO8Npa2GOOWcKF3ujrcho2jdTlfZkdl23F7ggjQr9rFQj0HcdWtMl8SDbr5aO1nEnjkihSGNuZC7q7viA0YXumyNZTlu3h5HVW7f1xn4TFOUwMjxtje9r36EgEjxBIGxGw1NgcWOaIsfhSyZmSjXa9Qa7VlKsJl+E/LWo17qWZSGIKgHuMbgoL7gay6X4T8taZ2gqRFHJIz4BUU5WB3xWwAbYknugHxI1XPESvCC9yyeG3aU37D/CJlWeABXsrWACP0CMB4X1ajFTmcVJik5oXAPypPh38LWvubG1wGYeJ1WOzzlpaVmKljYkobrcxsTifFb9D5W0Wq+OTLxOOkBXlsgJS3esVmYyX64ho0j6WvJv1GuTQ+h5nXr+IskFqWvXOXuyfGP8ACf7ifh1GqXhjp51jSRQwkc+6k+J8mY7r4sSf46I05s0xvbv9T4e7TQLg/EjUcPmlMqygiUI62GSDIIWCmwJWxtsbEXANxreNIIcRhp5zGZY5WMTZIQkq4ta1+6B4Ej5E+enJK5echxk+B/8ACfzj/DqD2x41JTLAY1bvzxq7BGcKjSIrDug2ZsrC/rbcAEzJ9en/AC3/AO6PQEKmWnjkklWOXmS2zYpKSQL2AyBxUXJxWwuSbXJ17SVcZjKskhBZ7gxOftt+HUDs7x956qrhcW5LWRRbZQzJdt8smKlhcAYlLeJLnGa54KOSSMgMJMQTb7c2Pj3Qe9szd0GxbYHQDzSxRxRRRpIqRsiqvKk2VSABuvkNOSinaZJ2jlMiAhSY5bLe9yFtiGsSMrXsSL20zwmvaejpJ2ILSrE7EAgEsATYHcC51XeP9pamnkmXmxd2cKgKWuDCZFh3bd3YAZdTvYDawFrp65M5e7JuR/hP90fh0PMNPT0s0UEUiKUc25cnXGw3YdAAFA6AAAWAA09x2okjgrJYmVJI0LqzLkBil/huL7Dz2679NDY+LvK9bFzUdI6ZSV7oZJGRiy7G5GOJJI2LWBO4AByolhcoWSUmNs091Js2JW+y77MevnfqBpMtcvPjOMn1cn+E/wB6L8OhvaDi08FSqp30emldY1jZm5iSQoGOF2K2muQFuApO/g52arnqIaKd/rJaQuxtYZNySTbyv09NATKeKnjkeZI5A8nxHly/xsCLLc7mwFzub6bpJo3heN1lxZ5QcUkBsZH+0oBH8DqvcE7VVDVFNBMynJ5kZlUKZGSWoRbKzXCqsF2xyN2S5AvctXVksUUTRsqhq3BwVvkslQykA37p3vex6aAl1s8SQpGkbqqPEFUROAFWRLADGwAAsBpHEKCjnJMsDuSysbxy7lAwXoOlmZSOhDMDcEjQjspxyWrpWklZWIqIQCq2Fm5D+Z++bDqosrd4HQ3tT2wnhkqVgniYRMF3UEpJyZ5eVYG5DtHDGCd8pGUHIWAFyStQyyXWSxVR9U/4/wAOmEipok93FIuEIiX3cm0ag4ruOg17xmtWBKmZ5OSqRKxksDjbLop2J8APEkaD8B45LO7RSTQuwo0eVEKnCVlFwhUkstjkTuBlHY76AL1UFNPGqzRSOOWU+rlHdcAONgNiANVn9pQjXhyxxq4VJUtmH/F9qTc/mdFON8deCeCKJ1djCztT2uzAK2JTHvli9hYA9xZT9nQDthXvPwWnmkN3d4yxxKXPeBOJ3AOpqfiRzRFj8KWTM8TXa8XXasxVBEw7p+WtSrS2ZsqkWXqx+6PDE6y6f4T8taV2gBMcgGVygAwDk3xW1hEQ/XriRtfwvqt+ItsIL3LL4adpTfsSuFNJ7RDZE+M2GZ+4/wCDV0ymvflR38+Yf7NUvs7lzKXMENtkCQSG5bXBI2Jv4jY6LVSVX0pEV5vICDLc8vHGbMEfDzOZySLi+INtstcmh4bzZ2K/iLJBamkmyl91H8Yv7w/cT8Gm+JmUQSjlRgctukh+6fDDU2mPem/3jp/sTVf4Ekg4fKJeafrsTLnkUJYpcTEyr3SBZyTt8gN40iwF5j1ij/UP9mo0kk3OT3afA/8AiHzj/BoZ2xaqBpvZ1Zl5oMirl3rWxVijKVQ7ksTj3QGDAkE7J9en/Lf/ALo9AIDTbnlR79feHf8A/TUejeYoRyoyCz3BkP32v9jQ7gVPUrWVjSPI0JxwLlrZXckIjbKFQouSbNa+7BtOcShkZIGjMl1qrsEZgCnMYNkF+JbeB20BOrpJrJ7qP41/xD5/7NPkzf5Mf6h8On2NAOzWfswLidb1F1jqDIXRMhipaa7Nt3ibkAsygkKNQuO01SJZeW1SQaiJkQGYq4wYOmcTryUuci18bqLhr2IFkgebOX3UZ3F/eH7o/BpHFDKIZjyYxeNrkOfun8Go3aaORqWuEJkEvKYx8skPmI7qFK73LADbQmjjqRNXmXncow9zMviCE8MiUN9z7sC24fJrHQFszm68qP8AUP8AZqG7zCeO0UYtG9hzD0yi/BqBxpHetpkX2lFxfmSRmTllSjKqHE4K2RzDkXHLUA97XnZsSinoufzOaKM8zK5fK0OV794tf+N9AGgZf8mP9Q+PX7GonDGmwPuoz72Q7yHrzX/Bqq8EFcZKFgtSsAmlMiSPJkqukxVZebdnCe7sxYrmxAvZSCfGS/JhEYnyNYe/FzLIomcuXWI95SoKYsCt2BIsCQAX4i0oQDlRgc2M7SHrzU/B56le9/yYt/xn5/c89BOFUbRwOW5wD1SlEmkeQqiyoi2MrMwDBOZa+3MOq72qjrjLVGlFUULJjgZBaTk1AXEO268/2csyWjK2BFlkJAusbSmWQGKM91LgyH8X4NLqOaEciKId07hz0t/s1G4uO5U/GDylF0EjMD37ELAVkO/ghBt4jQXs6lSHPNFR/wCijEvNZyBMFF92ODsR1aIKAQ2VyRYCyU5lxU8mO4UWPMN+n+zVU/aoX9gsyKo5yWxa/n+EW1I7Ue1Zxmk52fs0gJUPgpKHBrMeU7BhslsySpviCCI7a8z6Hh5qkOJVHezuQCwVjzWZwWWzFWYkXsSSNTU/FjmiGo4UsmZ2mu1ya7VmKmNzfCflrUKzPI2ZALL1Qn7I8cx/01l8/wAJ+WtJ7QUrSxvErBS6qLsuQIxXJSAVNmF1O/QnVb8RemF+pZ/DV9KbXQlcKEhnhs8fxGxwJHwP/qb6uGU2WPPgyIvjyze3nbm3t66p/ZuJlkpVYgstgSNgSI2BsPLRmq4DK3E46sFBGqC5uc7qsyYY2+A84PfLqnToRyaDhvNnYr+IskE6WOoyl97F8Yv7pvuJ/qaa4nzjBMedEQEcG0Z8AQR9Z11MjBJnCmzFtja9jy0sbePy0D4LwmWl4fPDM6uw5zBkBFw2RBOTMcjcsdzufHqd40gzK0y2yngFzYXjIuT0AvLufTTUkc/OT3sV8H/wm84/9TQ/thwaapNPyig5cmTZG3iPQ3XY3UWJ7tmG+jUygzIDuDG+38Y9AR45pGIUVFOSQSAIySQDYkDm9AdtIpOcF3mhF3YC8Z3ObbD3v8tAuEdnJopqUGGAQ07TMGRrMpkeXABQnwLHJbG4F3J+wLkuIcMM6wMoTKKpL5MN1AZw2Jt13G219ASqvnELaaE2kUbRnY3HX3v8tOc+Tf8A4mn2bE9w7Mein3vX00G7K8JqKWkjhqGVmWVLYm9gAgYlsVLFpA73Iv3wD00H492QqqmWaTlwIWkshEh+q5c0ayEBPrlaZpPW+NxiCQLYrSo0rNNCoBF2aMgfCPEy7aTxTncmYc6E2iYkCM3sQd/rfGx39NI43BLJFUxwJG0jYhRJ8IuFuTcEEqO8ARuQNB6HgE9OaqV2j5b0iRqgDFkMasApctZgoPxBVyLXsLHICxvLKpKmopwQuRBjIIUdTbm9PXTBExmjIlhN4nIIja1rxf6m99t9Cu1nBJ6iXuRx4CFlD54vm/X7B2Ciy7kBmuVOIBn8Do3hWmiexdIHBsdiQ0XjYXPmbC5vsOmgJcdRI2IWppyWBK2QnIDqRaXe2o/DzKqbzQrlLIAGjO55j7D3m56m2gfCuzlSk1MZI4uXFNNOSH76tJmEW4jAZQruSBjuU64EuQ4lwySohiRFU41nMYs1gBHUFztiS18egK723tfQE7iPOKfXQm0sYNozseYnX3nqDbUl5JV+KogFrdYyPiNh1l8TsPPQDs7weopaUxVDqx9oiKlTe/fizYnFd3kDvY3Iytc6FdqOxNXUS1LiSF1mAADBlIHLqIgCbsDy+csgsBkVOynvEC4RJPzZPexfCt/dN+L/AFNdO0xRrTwG6FtozupHUe96eumeK0UkyzwxyBGdEXNlLC12yBUMp7y3W4YEXuOmgXZfsxVUx5k8sLgUaQkIjAqY1UBQxcgoLMb4i5cmw6aAsiGZVW80K3G14z4C5/xfAC+qp+08ueHhmkjdTLGVKKQPHe5drj5akdruzNTVNDJFJFgsLpy3VhYyRSKSJFb7RZBuhtjffdSM7b0LwcIjikILLKLkb9WdhcgAFrHvEAAm5AA21LT8WOaIajhSyZnSa7XJrtWcqY3N8J+WtM4qUTKR2cABb2LH7KgWVbkm/gBrM5vhPy1pvGKUyK8fc7yqO+ma2xW90uL7euxsfC2q34i9EMyz+Gr6U7dBzhEIaeDvSC7eLMD8DHodwfQ76tL1NOKhaUzSc5lyC5P03+18NzixC3uQrG1gdVvgEGEtMl2OJxyY3JtGwuT4k+J1YZuzwauSsMhsqj3dvtqsiK2V+mEzgrY3OJuLb8mh4bzZ2K/iLJEqloRnL35PjH+I33E9dDxNDUUbzwyTGNo2KljIuQxNiBJYlT1BtYjpoxTfFNb74/7E0Jo+ECloZYgynuyN3EwQZAmyR3OCjwW51vGke8Q4jTQuY5JpQ4j5mIMhuuSptiDkxZ1AQXYlhtvpyBYpGhljlkaN4WdWDtupMZBG9+h032g7O+0yLLzcGSMqndyAfmwzIxFxcBoFuu1wTuNSOEcOWnFNToSVhgMYJ6nHlC59Ta+gItDxOmmaNYpZ2MoYrtNYBCVbMkWj7ykDO1yLC+lPNDCqc2SZRJKUBBkIDNIVXJluEuxAu1hcgaZoey3Lnhl5qkQtKwtHZ2MzyMVaTI3jHMvhbdkVr7W09X8KkqFhxkVEjnMjoyZiTF2Kg2ZbWPeB3swU2NrEBFJVU9TGslPNI6iVVJycb7EbNY2KsrA9CGUjYjXTcWpUdo2lqc0ZVKBZiSXyxKgLdlOD95br3W3203wLs6tFAsQkMl5YzkRbZFjiQWBO4jjW58TkbC9gzXdlJJnmaSojYSyIwJg78aR5YqknM7rDK6vjsWkNjlsARnWOHnSO0+KWJwMjm2I+yl2P8BqHUVtNMlRHFNIzpCWIye1mS4sx7rbEXAJtkL2vqdxOgM8dRCpQcyykyJzFsVGV0yW9xcdRY2O9rEanZsU4qJea0l4GVQw3F0XMlvtFjGp6C2/W+wE3iVdTU5ImlmW0bS396VwjBLWYAqWABOAOVt7acjhV5YmVpgGicjIurDvRdVezKfQgHTfGuAtPMsvMiAWJ4wjw5huYLMJO+M4rWPLsN1By8NOcP4eIfZ6cOzBKd0y6E2MQvt09PLQEan4xSPIkSVErM7ui2MlsoyQwLWxG6kAkgNY2vbXsckMEJkllkRTOyA5tuzzsiiw3uSR/MnxOofDew6QyxukzYRtfBhe4XLlqGJ2C5NfbvbdLby6zgi1cAVndCk8jqykixEr/APxuL+F9AevJFNGWjechJ0jJbmKCVlQNjnbIX2yW4uDY7aTW8Zo4TJzZ5l5ThGJ5uORUvYNbFsUBdsScVBLWGvaXg/s8cneUmWpSQhEwRbvGLKlza+OTG/eZmO17CDxzsOKl5nMwjMpG0cQAx5c0T5XY5yNHOw5m1sY+6QpDAFapY4TPLJJKEjjVmIZybDO+y3J+QGkpUwy8yNHqMljyYMJVC5KCAS4AD2IJQ94X3A1Ir6Pm8+IcvvxqPeR8xPtfFHdch6XGh3C+zXsxaTm540ywju2ZgigZStc8x7rsbLiCRve+gJNRU08KqJZpQeWXNmkayKLljjfEeAv1OwudtVn9o0scnDVkid2R5UtmWvtlcYvupB2IIBBFjotxvsctXKk5lKERBDZbnZZAtmvst5mLLY5FY9xibif2g8P5HCkiyzImDM1rZM7M7ELc2BZjYXNh4nU1PxY5ohqOFLJmaJrtcmu1Zipjc3wn5a0jjskUQaWRFOyD4QSWYKqjfzJAuems2l+E/LWm8WRHJR8vsHYMCCoVlIZRsQwBv6arniH0Q6X5Fn8N+qdt9hzgkETzU7BIyrG4sFIIMbEWIFiPXR+etpVrEozTJdwLPgtsisjhbdfghc36bAeOgPA2jjlp0UEIhxUBW2AjYAdPLVnkpaY1C1RV+aq4g4yW+0AcbWyAdhla9mYeOuTQ+h5nYrvWskOxUVODMzRRBVa5JRdgEQnw0NpZaaqoZKiOGNQ0b2GK5DY2yt8LWscfC+ikVVGTMGDEM1iMG3BRPTUFYIKeklihElsGN2EjEnGwuzAk2AA38ANbppHlfURR1Hs4okZjA8yueWqtgyKy3O4I5gJJFrdL72VQJBMKedadQssBkCFFDd7lMAR0y3t1tpfGeH0tVcTCQ3jaI4iRe5IyM690eJjUH0uOhOn4qiNJIlBkIWJhdlck2MfUkXJ9dAA+GcepZZoIDRBGmVm3WM44GVSDbrYxEEjoXj65EidVmGBI2NKjq8/KJAS6mSXBTYjvbsCQOgBPhpVPwWjSVJlSTOP4frLXvKQStrEjnygf7z5C3s1LTz8p5DLeGV3THmKLlmU3Cizd0lbHwZh4nQDdBNTVMQkjp0VROEBKL3gGFmFh8LCzD0I0P4t2jpKd5UekU8p8WKiMgLy3lZj4grGhOHU5J5mxanpaWnTCni5atMrlUiZRkSB0C26AD+GmK3gNFKzPKsrszhiWMvQBwE/5dpXGHSznQD3Elgp46mcwRERAMQQqiwUE94iw21CFfSTrVRxwRq0UVzkqBrsmRAUXPdyAJ87jwvonO8UvPjZpVDFblBIrdB0ZRcf01Bk4bSwJPJCjqxhZALSEKAgFlBFlvgt7dSoJ0BI4lUU8c8dOtLHJJIrMBioAxBKhiRtliwH+1vLSOFez1Hs8606KssDPiVXa5iPUXB69RsdL4vwiiqWzmiJkClOYEZXxZWUjNRlazt47XOnIjEjxRjNkWGRe8rsSMotiSLnQAmh7Q0cs0ES0qjntIEJVBcR3OQHUggBvMBl89pE00ECRZU8bc6qeK5CgLeSSxLEWG4CgeLMoHXTtJ2foIpFkihMZVsrIjqt97XRQAccmtttfSxBBNGFk5uKzu+IEgDETMwyCjvC4Bsdtt9AMU1RTVMTvHTooSpSMEovfGcRDC32WVgR5gjz1B4t2nooDMPZUfktiQBHc4xySyEA/ZVIm3PVhiPPRQUlNTxsKeLliSeJ2VY2UXzjXYBbDZRsP/Omq7s9QzM7SJIS7ZH60AXDBgAPhDhmDAfEGN9AP8VamphPPJChVESwCLdixZVUXsLsxCi5AuRqJw3ilHUmWKKKAskQYkYEEsivZLDvKokS7ja7AaI1nImaWOQOVKxnZXBBVmZSCBcEMAwPmBqJRcJo6fJ4UkDcooLiQ2GKAnvX3YRpk3U4AnQCqt0jeCJaKOTmqbMMBYqhY3BF7bAZebrqt9u545eFRVEUSxiWSNrAL073iuzDyI2IN/HVrqqanmUGTmXMJiuokBCSYlwCo2JxXcb7DVb/aQiLw1Yo8yqSoBnle3etu+51NT8WOaIajhSyZmSa7Xia7VmKpYal+E/LWm8dnaOOSRSAUQNdlLjZQbYqykk9BYjcjr01mM3wn5a1Kva7EGJmFl+5bZVINmbz36arfiL0QzLP4b9U17D3A8+dTcy2d+9j0y5bZWuSbX6bnRqp49IvEY6QKpjZRfY55Mszhr3sEHJxtbcuNxaxBcMnYVEJ5Uh752vHv3G/Hq2lveCX2J+YFKh/c5BSQSobmXsSAbemuTQcN5nYruIsiTT3ymt1zFr7/AGE8NCOH1s01DLJMUYkShWjQoGRSyqwVncjIDId47Eam01Y+Uv8Aw0u7jxi+4n+ppiulKU0kaUkiIsRVQOUFVQpAAAk2AHgNbxokPtF2hmpp2UKjIadpEFmy5gkijXIre0d5RchSQATfa2p3A68zpSTm15abM2BAu3KJsDuBv46kNMS2RpJC1iuXur4mxIvzL2JA29BqOJyJI1FLIFEbqFHKAtePYASWsOltACOGdoqp5KUMYHjmnli5iIy8xY43dXRS7YglCNy2QswsCNTuJ8RkhWHlNHlJU4GNwSXUyHMqwYYlIw0hJDCyWtvqTS08cQAi4eUCksoRYFsxFiRZ9iRtfy00saSKploWkKSMyFhC2JzJuuT7G4G48tAQOyfH5K2mEsoQMJkFkBAxZY5F2YnqHBBvuuJIUkorXGO0tTFLUIAmELwsW5dysMnMyYpzhmAyBbghr5+7IUFizsI0VY6N415gNl5Ki5a52WTqT46UaSK+X0duZObfCC/MAsHvn8dtsuugPeLcRNPHUTBcmXHEb2LMFVb4gkLkRc22Fz4aCcJ7QS1UMpZomQ0SSkxoy4PJGSUJZ2y+9awKgpe+QOj8FY+cv/DSm5G14vuj/U1Cq4I44pnjoDGzRFS6rCDiFsASr3IAA29BoCN2l7Syw1CU0MYZmidrsrG7WYoFxIDWCMzLcH4ALFribwHiLVC0s7WvJA7XUEA96KzAEkgMO8ASbA9T11Kqm5gKyUTupBBDclgQwsRYydCNiPEaaepbnRj2WW3KcY3i6Xi/1LW0BX+Cdrah5aaCojVZHuJyqCySd8LGPfN4xseYMwRiMVyJWZxjj7UkMZVL8yplDNbLCNXld2C5LkcVtYG+5IDWxYrBBGnLw4eV5QIjxWAYBviC2fug+NuumKRs47PSPIFmkYZcogMJXIIyfZgfH8tAMUXE5JknWXHKGsSPuqVuucLKSMmFyHuCGNxYkKSVUV2n7V1VM8+PIkSNrL3GUgrBNUNGx5hycpEgDALYzA2NrE5OBFEEiomiXmo1lEKi5lUnZX6k+PmdSZlVgQ1CzAuHIIhN3FrNvJ8QsLHrsPLQCeK1JiWolWRI+XErl3QuqhcyxKKyE7A/aGh/Cq+sd3jqDDZaVHkVImUpLID3M2kYMBg5IxBAaP8AjPactJKrUsjAql1PKI6t1BktpyaoIWQikkBYEsRytzja5tJvsAPkBoAFxrtVJTVUUIRWiMOTABi5YpMyKCDZS3J2upBGdyuKhw/bTiTVHBoJ3wzd0LYAhcu8DiH71rja+rnGwJSQ0TmRVsr+5yAPUBuZcA+Wqv8AtPb/AO3hRA0SrKlgcLeOwEbG38tTU/FjmiHH4UsmZemu14h15qzFVGpfhPy1pPaaSRY2MZIa8QuL9CYw1yASq43uwBKi5ANtZpL8J+WtXq88zYray+B+6PI6rfiJ2jhv3LN4cV5TXsd2YZi1IXyzIUtkArZGJr5KNgb9QOmjNVVVQ4pFGvM5BQZDHuY4zFmytbMSCFbX6MdtydCeFiT2iGxS+Z8D9x/XV0tP5xfk39dcqh9DzZ167iLJCEcj2ggEkNcAC5+rToD1Ppqvdmamok4ZI1SWMmD3LA792+2Sq1rkjdRY3AuACTlKJ8pd4vjHg33E9dJ4sJ+RNcxW5beDfdPrrdNIB9r6msjnvTvJg1M1wFBWNudApkFkJyWOSRrHK+Gy7G5PhtSzxU8sivGzUrMym5dSRETe4uWHqL38PDRQifzi/Jv66iyCfnJvFfB/BvOP10BVOz3Ea5paLJZ2gcylnYKDZuY0aS5WcNGioLhbFmIubC5bjtRKkdPyS+Rq1DBATeMzWk2CkEYk3yKgDJr3UAn7T+cX5N/XUagE+Gxi+N/Bvvt66AEdnKppIS7PKymp93zVKuqArYNkqk33cbbBgvUHVd7S8W4oJ51ijqEUMvKxVGU2jqeXuhY2klSItliQCFOIN2vNcJ7LcxfGvg3n89SbT+cX5N/XQAzjcs6xVJpkZ5e6FC43FwoLDmEKSoJYKSLkAeOq1wDiFZJ7SKgTBPZQQJFti3KS99rXJLMCrNfvZYlQNW+nE+cu8XUeDfdHrpPFhPyJbmK3Lbwb7p9dAA+1lbVRzn2dnI9nawVWIjYE+8YYFX2Oy3vdPhYE2I8LqJGSnco3M9nc4sTckGK1ywB367gHfoNFrT+cX5N/XUOQT8+PeO/Lk8G+9F66AqPAeL8RkkoeZFPy2kYTyYgK5aF2sVfF41R7C2NrgjIkAMb4ispiiSF5Ed6tlunQLznaQtsduWrWvYZYjx0ftP5xfk39dQuFifA2MX1kvUN/mv66AE8FqnlhkcvKyGrTliVSrqgkiG91FwzBnHkrqDuLCv8AaLifEhLVCEzhQ9o8UJIIimMYsUIAeYRL3SwKsS2N9XfiYnwFzH9ZH0Df5ieuplp/OL8m/roAP2kmlSKoaHLmYxAY32u5BJIBIUAklgCVW5AJAGgPZHiFbJI4qDOU9mB95Hj3+XDckYgC7NIRY3PvAwXlqDbIRPzpN4vhTwb8XrpyqE+D7xfCfBvL56Aqnayr4hHLE1ISyCBmKBCwXGOW7MApDEuYcVDZXRgFILWgdup3fhETOGDc1R3ySWsWAbcKe8AGFwNiNtXunE+C7xdB4N5fPVR/avzPYO+U+uS2IPr5nU1PxY5oix+HLJmUprtJU67VlKsNSnun5a0/tDTGSNkAyJEZx2s2ODYsGIBQ2swJ3Un5ay6U90/LWq8QdVkVWmKs9gi9zvEICQAVJNhvqueIW1GDXVll8OpOU0+g92ZgaN6SNmzZLKzfeKxMCd99yL76L1XB5zxSKpA90qAF7joFmDR43y7zvHJcCx5e5uBcLwGRZZoHinLKXNmXAj4H6HG2rg0qiUQGrbmlchH7vIr0vbDpsfyPkdcqivoO/VnWrraat0Q/HHkZ1uRdrXGxF403B89AOz/CpKbh0scgxJWRglgMFK2AIQsoY2ybFiMmaxPXU+omSBZ5Z6poo1cZO3LA3RALkp4kgflpNbMjx1MaVbO8UZ5iDl3XJTa4CXF7H8j5a3TSBXbPgM003NhiyBp2jchluff07hQshCscEkIVu4T3W2bRTg1NJFBSxSpeSOkKuga92URAgMx3uRa5P8fHT1XWxROUkrCjBDIVPLBwGxPwb2JH5jz17GM3ikSpdkaJmVxyyCpMZBBCWII3voCu9mOzJD0sstGsLQ86Q/V3jeRjhFGYifcqsklhtuENgbgEeOcPkmWm5UeTR1fMzOFkVZSWuSRILre3LuSQFbulrzabiUEjRoldk0mWCgx3bEkNYYXuCrXHXut5Gy4yI0BepdA0pQX5e7NIVUC6dSTa2gBXZChqYKVY6oASc5Te6lmNkzZmTZi0mZBPexKZWNwBnHOzlW9RUSGJZhK0JiN0KAxtNiJY5j9WquC2ALFmuu97WRZkmRXhqmkXmqt15ZAII8k/j/EHx10/E4EJV64qVcRm/LFnYEhd062BPoAToBvtJRmaCqiEbyFsbJHy8j8J/wAciMjbcN1Fxv00MpOE1MT1cswixejRByyQFMYk7ioeijInp9r+AOEcszvJUuiJYs7csAAKCSSUsANMVlTHJHURpVs7pESye7uAyXW4wuLgg/xGgB3aThdVJWLIsfNp+QUKWia11mD2WewzYmEC/dKrIGttch2do3hio4ZQM46UowvfcckHck3/ADOn63iEML8uWtZGxL2bljugEk/B4BT+WvIveSQyR1LsjwuyuOWQVJiIIOFrEG+gK7wfs+8U1GRRCMK8szvHyl5RkyVICFa+CowywDAsiHzIe7XcJnqaMJTpmwqZSRkB4zqp7xAsHZbkHJRdk76rozS8Vp5DGqV+TS35YBiu2IyNhhv3e96jfprynlWJBzKpo85pEW/LF2Mr7C6ddAM03D2h9quuKyVscib3uD7OGPpdw/XVY7T9kqyWWpeFbq77AsqszGKZVkJDG6wySRMt7MAjWUlULWyaoSWItFVmRUmRWI5ZCsJEuDZNiLg/kemvBxqmKq30gMXVnVsorMqXLsDh0AVjfyVj4HQCu0FEZo6iMBmJSMhVxu+LFsSHKqVa2LKSAVLC++gXZfsxPTSvJKxIWlEbG4Ob4RDukEkxx8shcwCDJJbY3JuOui5gb2w2mCLEfd+8JzIC9zc7Hb568PFad1UJX580OIwDEcyl8sbJvb00BXuP9maiUuYY9pJUe+Sjvch0EtmO/LkZXt17t1BKgaB9puGTwcOqOcmJkrFcbqb3G5GBIK3GzNZyPiF9aAnE4FFjWkFGWNt4+67C4U9zY/PVX/aVVRyUD8uo52FQqNuncYXuO4o33HX01LgcWOaIsfhyyZl6nXa8Q681ZisWGpT3T8tatxij5jIL2CsrH1HKK2Hr3r/w1k0p7p+WtX4rIiOhZSc2RLjoCwUAncWF9VzxBfQhbq/4LL4fS0p33WX8iuyFA0MkCswZjISSAQPqyosCSRso8et9Wio7PF66Or5gxQA4W3zVZox3r2xxnba17qN9Vjs60c00TBGA5roQ2xugdTsCfEf/AM1aJa+mWqWkKNzHW4b7NyHYLe98isbt0tZTci4B5dG24O++5061JTVt1kPcW4eaiCtpwwUzK0YYi4BeJVvb0vocnAGgNbMZAyyRvgtiCuTSSNkbkHvSWFgLAeuplXyYEqZmiZxGciqbsQI0OwJA/Mgaiz1cEoqYVicNHTrJdhYFZVfHE5b2wYHbr563DTFdoOATVEwk5kYREHKUhrrIJEkJNiAQxjRT4hcrfEdSuFcPanSngDBmjgZcrWBYcvfG+wv4X6aTX1McUwh9mldnRnQoUs5W10GcgIaxvdgF/FfbXtByJ+RPGhwlgMi3uDZuURtfY2OgA3COxLxTwzNMCI2Lstid71RQB2YsR/xbZM12YoD4nRDjHADVpDaVozDUc0WCkEpMGN8gTlipAIt8RvcXGkcM43TTNCqwSqZ+YFLYkAwkhwcJG27uzrdDdRldgC9VVNNTxxmVCebUCFQtycpJSgvvsoJuT/1JAIDHZvs6aKARNIJCZYtwthaOOKFdrncrECfUnw1E412LkqHlbnqiyOe4FYjFkljkYXbaVlkG4sPdjbc6KU09PUJnEpxWcR3Nxliw3XfdT1B8RY6h1XH6RHePlOSk6QAh4xlI6lrDKUEWA3yCk/Zy0BP43ws1Mc0IYKTJE4vex5bJJY4kGxxxJBuL6E8O7MSUyTPJPzrU5QMQcmJROYzksciWjBHiLm9+ui1fJT0yzzSiyIVvv4kKABc2uWIAv4nUJuI0s6VUUa96KG795TYuhYL3XJJAI7wBTewYkEACbx/gT1DZCQLjHjGCCQHLo5Zhfce7Vdt7F/PSuG0DQiCEsCywSAsBtkWjuQpJ2udgSdNcTrY4plhFJPIXRmVkKWOIJK9+VSD03Ix7y7767hjw1Hs9QkbKksDSKrfFZjERcKTvY+BOgA/Auw0lO8DGdCsZBZQrfYVggVixIBZ2Yg3sLKtgosSruB+1RItwuFRIxbvXw5r5qMWAOQ271wOtiQNReE9qKOoeBEhlBnywJxt3BfqrnLbrhlidnwO2pEtbT00amSNmznlXu/ZAke7HJh3VG5tc+QOgEcE7PGjpyhkEl5oLELbux8mJL7m7Yxgk+ZOh1d+z95CD7Qo+MnuE94tVmP7Q2HtZyHjgLWudEqPiNNVwGSFGAWaId7qQzROrAAnZkdWHiL2IBBAT/wDUNJgrmCYKySvuvTkNi6mzfGSNgL+ttAPUvAmCrEXGSSRzMbGxPNkkYAXuBdiBfwtqJJ2TkVxLzlxEksrribkNK0yBTewILWYkG46W08vE6YBZzDJjK8UWNrmN3kaLv2awCv3SQT6X15LxmmLck08yu0rQWIFlcQ84FirkWaOxFrnexAsbAOcQ4BNJkY5Iwsrws6spOSRD4LqR8TAX8xceOqn244E1Lw+TKQPnUR42BFkVcVBuTdvEnYemrVPximiurU8pMbxRsRj/AIuysoZwWW+1lBYnop1XP2j1sclDMqRvG0NUkbq9r3xzUgqzCxVwRvffcA6lwOJHNEWNw5ZMzNDrzSUOu1ZblbsR5T3T8ta5xTlMwVpFGJje2QBugVhe/hcayCU90/LWwcWq2R4gFBEjIhJYgi6XFgAb9PMfx1XPEG2ELdX/AAWT6DZSnfov5FcBeGOeK0qWMzubuvVw7H+FztqyzUlG1UtWahc1WwXmJjcB1DW65BZHXrazG4Nhau9l6p5JYWYAESuvdJKsFEi5KWANjby+VxY6sVR2hK18dJywUcAZ5bh2SZwMbWxxgbe97sNtcui2Qd+p0a1pzTXRD0lTTyLURtPGFkJUkOt7NGoNr6iVSU0a1EqzqWemWKxkW2MQkKkW3ueYb/IdNSeOcSemp6yojRXaEGTFmKghI0LbgHewNhbc2Fxe4an4o7mthZFxihDB1JO7q5wa4ADgBWsCdpF8xfdNMY4zw2mqJHkaudM4TAVSSIBVY3YqWUsrHa5B3xW42FpkFTAhijFShxhZcy0YOxjANlAQH0CgemmO0PaU0khDrGYhC0mRfEqwZEQMWGCq7OFBLDcMegJEnhHETUJS1ACgy0xewNwC3KNr+QJte2gIFDwqkieF/a8zCzuAzxAGSXIM5wVTchyMVsnQ43F9KrqOiqkUTSx3jlLqRIARjMHt16MUUH06WO+ovA+23PmhgaMIz5hz39mDzKigFbqzCndysmJW2NiTtK412ljo0gDFcp6nlgM4WytNi779cQwNh8+gJAC6OnoqVMIJIwrTK+PMBA+FbDfZQFG2ma3hVLK8rvWk84oHGcVjHGWKxfDsmTsch3/xbaV2b7QNW04laMRkTIMQ2WxVHG9h9/Y9GADDusNDeKftB5bShIQwjkZdyykpCsxlcEpiTlA6Kqk9Lki9tAGq4004mjeoRQXjZWV0urR4OjDK4JDKDYgg2sQRobT8GoaSKUwTj/05jVDIpCgIAbW7xLYKTcncbWubnOJVbQpUzLh7sBzzCQoVVBYkqCdlBPTQ2Pi08q1EU0KIVpVkODFsHkVso2uoGQIuLE7WJAuLgSeJQUsxdmqQrPA0AZJEBRX3cod7MbLvv8C7adeqphLGgliCCF12cCwvEAAQdthofx7tgKaq5LovLEWZkMgXvESkL3u6CeVsGIuGZhtGx1L4LxX2mOlqgovLTNIVU3sTyiVB8wdv4aAGcM7N0MDxSLVEmI3AaSOxIUquyqMbKbdzHLq2R1MkipaiJUmmjxSoeTHJO8VlcqCWuQL2PdIJta9iQYPAe27TywwyQcpnJDkiSykrdFGSAhiQykvjvGbXuNO1faKSmflCJGVxMyMXN+Z7UkQVlCmyXnU5Ak7NsLbgSVipaeNhHNGTJUJI7ZICzGSPeyAKLKoGw6C5ubkpm4TRMgjNSLATD61L/wDEMWfe3UE93y8b6HcM7XvVsIzCqbQuO+Tds6csAcQCAZbG26gKSBzF07L2xnWKOQwxEss+SLIbqYGdcrlN4y6omVr3lG22gJcNHSY+zmoBVGhkz5iZM8cpmu1hbvOLtYDqbW2s3HwqlRBesMhSZ6hS8kd82R0IJVRdbSHruNhewA0qPtBLjHNykvJLHDKMz3SZXhYp3e93hcXx239NIj7TTPihiju00sDgM+QwQuHCMgIW1r5W2ZCL5LcB6roKWYEtV48zlmRVeOzCIGy94EqCTclSG2FiNVb9oVJFFw+QR1LT51SyNkyMVLk33jUG3llewAA2AAsHEe2PswdZViUrLFFGWlsGV1DMzFgLELc4i+9hfe+qx267SR1vDp2jKFIqxI1KuGyXEMHNulyx29N97gS4HEjmiPF4csmZup12kIddqxlesR5DsflrW6ni9C+JNZSm2JAMm4IUDy2PUayNtETxZj8UFOx8zEL/AMiOgAHyA9b8+vo41KipX2dDqUVVKnbaW/qabwbivDoJIsKukWNGJssnTusuw/iNtWJu1fBzMJzVU3NC4CTIXxve1/Lc/mfM6w/6Va9zBTn5x+Hl12HoLC23SwHn0mdh7PTbf6Q/8nWrhfS4wVk3/tmzi17xHdo3B+13CnEySVlOyS7FS4sylFUg/OxGo0vaLhCrUGGpplknVsiHtkxFgT/LfWJVNUZAAIolt4ogUnbxPUi3h56jW9NTL6fHmyB1j5I349p+Dc4z+1U3NK4l89yovYH03P5nSU7V8KXlolXTLEkTRhQ4AA7gUAeVlI1gdvTXlvTWWro9x552Xab1Tcd4HG0bJPSK0d8GBF1yyub+Zzbc799vvG7ydruFMmElZTMBJmAXB3EmaH5ghT8xrALemut6aauj3Dzsu03in7ScHhQRwVNLGuasQrADaw/kqgDyAAGwGvJuNcCZi7TUZZnDkkjdlvY/PvN/7m8zrB7emvbemmro9w87LtN/k7W8KfmrJWU7I5HdLixAA6j5jUeftHwgCoaKqpllnUhmz+IlbAn8gL+QGsIt6a63ppq6PcPOy7Tfn7T8GMwnNTTGVRYPkLgd62/oGYegZvM68g7WcLjaIR1lMsccTIFDjui8eIA8gFP8tYFb015b001dHuHnX2m8wcf4GhjZJ6QGK+BBF1yuWN/MliSTvdmPideJ2i4QykTVVK5JlXdge5LJmR/GyE+qjy1hFvTXlvTTV0e4edl2m5njfBUs0E9Ij3jF1IHcRo9hbp3Y1Hrgg8BZb8Y4ETkZqQkqyHvdVkLF1I6EMXYkH7x1hNvTXW9NNXR7h52Xab1D2k4QO57VS8pRHguQspjJINvQ2N/PTH0xwNbMk9KHQNgwbcFrX38bkC9/IeQ1htvTXW9NNXR7h52Xab6O1HCLMGqqYl8c+/8AEUAxv8rD8tVf9pvHqCajdKWeF5JJ0dwhuWIAXI/JVUfIDWVW9Ndb017CgjGSlfceSq3JNaI6h15pCA6910bmjon/2Q==;" vertex="1" parent="7">
                    <mxGeometry x="490" y="170" width="198" height="255" as="geometry"/>
                </mxCell>
            </root>
        </mxGraphModel>
    </diagram>
</mxfile>